<svg id="Layer_1" data-name="Layer 1" xmlns="http://www.w3.org/2000/svg" viewBox="0 0 1600 1040"><defs><style>.cls-1{fill:#fefefe;}.cls-2{fill:#091c5c;}.cls-3{fill:#57bcf6;}</style></defs><path class="cls-1" d="M130.38,1044.32V4.32h1600v1040Zm830.72-758-1.72.68-3.5.9c-6.62,0-13.25,0-19.87.09q-41.94.84-83.88,1.77c-18.4,1.85-37,2.54-55.16,5.74-58.36,10.29-77.53,41.3-59.38,93.61,11.92,34.33,27.74,66.88,43.94,99.28,8.1,16.19,16.21,32.37,24.65,49.23-15.67,1.36-30.07,2.3-44.37,4-14.51,1.68-29,3.61-43.36,6.31-13.77,2.6-28.1,4.08-41.68,13.49h539.64c-38.51-17.21-74.84-15.61-111-19.87,9.68-18.89,18.73-37.21,28.36-55.21,21.68-40.56,42.09-81.65,53.21-126.6,9-36.28,1.18-62.73-23.43-73.83-50.26-22.67-103.94-19.73-157.19-18.73C988.87,267.51,976.94,281.73,961.1,286.36Zm63.23,379.3,25.29,42.2H1070V638.2h-16.82v39.13c-16.79-12.09-13.15-46.84-45.57-38.79v69.35h16.69Zm125.11,42.49c13.29,0,26,1,38.5-.24,16.92-1.69,27.83-18.17,19.31-30.5-5.73-8.3-5.64-15.57-5.45-24.08.14-5.85-3.11-10-8.24-12.35-14.25-6.66-29.24-1.32-44.12-3.52ZM900,672.83c0,20.41,16.08,36.45,36.7,36.52,18.85.06,36.55-17.35,36.62-36,.08-19.8-16.67-36.42-36.82-36.51A36.08,36.08,0,0,0,900,672.83ZM489.89,707.39c20.07,6.26,45.55.13,55.58-13.58,9.3-12.73,9.74-26.29,1.51-39.52-9.68-15.57-33-21.72-57.09-15.66Zm97.19-69.26v69.54h17.1v-27h28.45V708h16.85V638.27H632.32v27H603.76V638.13ZM1398,654.91c-3.12-10.9-11-15.85-19.75-16.88-11.62-1.37-24.39-2.66-32.36,9.56-9.85,15.09-.56,28.12,23,33.1,4.62,1,11-.36,12.87,6.14.31,1-1.75,3.73-3.18,4.18-6.56,2-12.84,1.53-17.91-3.84a35.44,35.44,0,0,1-2.56-3.49l-17.21,6c3.27,11.46,11.18,17.06,21.79,18.74,13.78,2.19,29.54,1.8,34.31-12.91,10.72-33.11-21.91-25.66-36.07-34.84-1.14-3.48.36-5.34,2.89-5.74,7.13-1.15,14.42-2.23,18.78,6.21Zm-153-16.74c0,16.35-1.68,32.44.51,48,1.92,13.64,13,21.37,26.78,22.9,12.8,1.43,23.37-3.75,29.71-15.09,9.9-17.7,2.58-37,5.41-55.81h-17.51c0,12.94.07,25.51,0,38.09-.08,9.44-4.44,16.17-14.27,16.26-10,.1-14.72-6.57-14.86-16.23-.19-12.57,0-25.15,0-38.11Zm-493.22,55V638.3H735.2v69.77h47.6V693.2Zm82.69,0V638.12H817.7v69.73h47.63V693.21ZM684,638.13v69.74h16.44V638.13ZM900.89,795.79l8.87-1.59c-3.16-6-5.87-11.09-8.55-16.14,10.69-9.86,9.07-18.72-.57-27.13H868.23v45.28l7.44-1.54V779.73C892.2,772.35,895.73,784.75,900.89,795.79Zm215.48-.52h33.54c.27-2.83.47-4.88.84-8.75h-26.42c.24-4.34.38-6.9.56-10h17.69l2.87-4c-.52-1.9-1-3.62-1.72-6.36H1124.3c.34-2.84.54-4.55.56-4.75,8.18-8.76,18.17,2.14,25.86-4.54-.21-2.18-.38-3.95-.59-6.16h-33.76ZM813.63,759c8.87-4.18,19.57,3.59,29-8.29H804.92v44.42H841c-6.95-14-19.84-4.36-27.36-10.4-.26-2.14-.61-5-1-8.39h17.83c2.47-3.33,2.19-6.25.52-9.77H812.63C813.06,763.31,813.41,760.67,813.63,759Zm-47,26.19c-8.1,2.24-15.38,2.72-22.68-1.09l-3.7,3.89c3.36,7.69,10.9,8.3,17,8,11.61-.61,19.79-6.21,18.38-17.94-4.78-13-19.7-8.81-29-18.82l14.55-1.67,3.22,4.11,8.2-.85c-7-15.17-18.27-10.38-28.82-8.86-8.67,21.85,8.8,21.5,21.12,25.63C765.42,779.77,765.91,782,766.62,785.2Zm188,8.41c8.36,4.07,25.48-24.07,26.37-43.06h-7.31l-14,32.94-13.87-32.7h-8.45C943.26,765.43,948.89,779.43,954.6,793.61Zm133.73-36.1c-15.34-11.25-28.84-9.36-36.72,3.84-7.42,12.42-3.67,23.28,7.53,30.87,9,6.12,24.43,3,28.57-5.75-13-2.55-37.2,7.24-29.49-20.61,3-11,14.26-8.9,24.53-3.26Zm-77.16-7V795h7.52V750.19Z" transform="translate(-130.38 -4.32)"/><path class="cls-2" d="M955.88,287.94l3.49-.9,1.73-.68c15.84-4.63,27.77-18.85,45.25-19.18,53.25-1,106.93-3.94,157.19,18.73,24.61,11.1,32.4,37.55,23.43,73.83-11.12,44.95-31.53,86-53.21,126.6-9.63,18-18.68,36.32-28.36,55.21,36.17,4.26,72.5,2.66,111,19.87H676.77c13.58-9.41,27.91-10.89,41.68-13.49,14.34-2.7,28.85-4.63,43.36-6.31,14.3-1.66,28.7-2.6,44.37-4-8.44-16.86-16.55-33-24.65-49.23-16.2-32.4-32-64.95-43.94-99.28-18.15-52.31,1-83.32,59.38-93.61,18.16-3.2,36.76-3.89,55.15-5.73ZM858.3,376.52c10.33-10.19,23.27-15,37.27-16,46.7-3.52,93.48-.86,140.23-1,34.71-.11,69.42,0,105.3,0-.42-4.39,0-11-1.81-17-8.22-28-32.67-32.83-56-35.3-90.46-9.55-181.2-8.79-271.69-1-58.93,5.08-74.12,28.68-57.16,84.71,14.54,48,40.1,91.12,63.62,135,6.87,12.83,36.48,20.18,50.08,11.83-6.44-8.34-15.83-3.4-23.32-5.51-9.11-2.58-16-10.34-14.29-17.9,3.46,7.1,8.92,10.49,16.48,10.49,28.13,0,56.27.22,84.4,0,9.32-.06,18.62-1.06,22-13.18,8.11,15.2,21.16,10.74,32.93,11.12C990.08,508,992,490,1010.74,490.74c17.28.67,13.68,17.86,15,30h47.94l38.3-74.31c-42.16,4.39-85.52-12.41-120.46,21.91,32.68-46.36,81.69-18.74,123.65-29.21l4.74-10.74H1006.56c-11.82,18.59-27.61,32.44-51.93,40.19l10.93-7.5c5.19-24.5,10.26-48.44,15.42-72.86l-10.42-1.32,0-.89H1136c.73-2.58,1.49-4.95,2.06-7.37s1-5,1.91-9.85c-61.58,5.14-123.23-15.47-184.06,10.95l16.68-13c-16.05,0-30.28-.36-44.49.08-22.65.7-45.8-1.31-66.72,10.56l-.77.39L858.75,379Zm111,80.33c17.82-.46,47.69-51.53,39.32-68.09l-23.47-1.06C979.71,411.43,974.52,434.1,969.3,456.85Zm42.91,40.35c-8.09,2.34-10.34,9-11.65,15.65-1.64,8.32-2.66,17,3.32,24.33,1,1.22,4.48,1.82,5.89,1,7.37-4.07,9.23-11.58,9.75-19.09C1020.08,511.07,1021.47,502.25,1012.21,497.2ZM981.74,536H915.37l.21,2.63h66.53C981.86,536.86,981.68,535.55,981.74,536Zm82.32,1.06c-28-5.49-43.72-4.21-43.92,2.67C1034.86,538.58,1049.83,542.23,1064.06,537.05Z" transform="translate(-130.38 -4.32)"/><path class="cls-2" d="M1024.33,665.66v42.23h-16.69V638.54c32.42-8,28.78,26.7,45.57,38.79V638.2H1070v69.66h-20.41Z" transform="translate(-130.38 -4.32)"/><path class="cls-2" d="M1149.44,708.15V637.46c14.88,2.2,29.87-3.14,44.12,3.52,5.13,2.4,8.38,6.5,8.24,12.35-.19,8.51-.28,15.78,5.45,24.08,8.52,12.33-2.39,28.81-19.31,30.5C1175.45,709.16,1162.73,708.15,1149.44,708.15ZM1167,678.09v15.55c9.47-2.59,19.48,3.63,27-4.71,1.19-1.31,1-5.94-.31-7.11C1185.76,674.61,1176.1,679.78,1167,678.09Zm-.17-12.62c7.83-2.16,15.79,2.65,21.93-3.79,1-1,.63-5.27-.52-6.11-6.62-4.85-14.14-1.89-21.41-2.37Z" transform="translate(-130.38 -4.32)"/><path class="cls-2" d="M900,672.83a36.08,36.08,0,0,1,36.5-36c20.15.09,36.9,16.71,36.82,36.51-.07,18.67-17.77,36.08-36.62,36C916.06,709.28,899.94,693.24,900,672.83Zm35.89,19.41c11.68-1.18,19-7.2,19.19-19,.17-11.2-6.4-18.48-17.64-18.95-12-.5-19.3,6.59-19.54,18.48C917.65,684.23,924.77,690.49,935.87,692.24Z" transform="translate(-130.38 -4.32)"/><path class="cls-2" d="M489.89,707.39V638.63c24.05-6.06,47.41.09,57.09,15.66,8.23,13.23,7.79,26.79-1.51,39.52C535.44,707.52,510,713.65,489.89,707.39Zm17.18-14.85c10.13,1.28,19,.69,24.76-8.38,4.94-7.79,4.65-15.67-.72-23.24-6.06-8.55-14.71-8.44-24-7.46Z" transform="translate(-130.38 -4.32)"/><path class="cls-2" d="M587.08,638.13h16.68v27.14h28.56v-27h17.16V708H632.63V680.7H604.18v27h-17.1Z" transform="translate(-130.38 -4.32)"/><path class="cls-2" d="M1398,654.91l-15.43,6.18c-4.36-8.44-11.65-7.36-18.78-6.21-2.53.4-4,2.26-2.89,5.74,14.16,9.18,46.79,1.73,36.07,34.84-4.77,14.71-20.53,15.1-34.31,12.91-10.61-1.68-18.52-7.28-21.79-18.74l17.21-6a35.44,35.44,0,0,0,2.56,3.49c5.07,5.37,11.35,5.88,17.91,3.84,1.43-.45,3.49-3.14,3.18-4.18-1.9-6.5-8.25-5.16-12.87-6.14-23.53-5-32.82-18-23-33.1,8-12.22,20.74-10.93,32.36-9.56C1387,639.06,1394.88,644,1398,654.91Z" transform="translate(-130.38 -4.32)"/><path class="cls-2" d="M1245,638.17h15.69c0,13-.14,25.54,0,38.11.14,9.66,4.85,16.33,14.86,16.23,9.83-.09,14.19-6.82,14.27-16.26.1-12.58,0-25.15,0-38.09h17.51c-2.83,18.78,4.49,38.11-5.41,55.81-6.34,11.34-16.91,16.52-29.71,15.09-13.75-1.53-24.86-9.26-26.78-22.9C1243.34,670.61,1245,654.52,1245,638.17Z" transform="translate(-130.38 -4.32)"/><path class="cls-2" d="M751.8,693.2h31v14.87H735.2V638.3h16.6Z" transform="translate(-130.38 -4.32)"/><path class="cls-2" d="M834.49,693.21h30.84v14.64H817.7V638.12h16.79Z" transform="translate(-130.38 -4.32)"/><path class="cls-2" d="M684,638.13h16.44v69.74H684Z" transform="translate(-130.38 -4.32)"/><path class="cls-3" d="M900.89,795.79c-5.16-11-8.69-23.44-25.22-16.06v14.94l-7.44,1.54V750.93h32.41c9.64,8.41,11.26,17.27.57,27.13,2.68,5.05,5.39,10.19,8.55,16.14ZM876.32,759v10.17h21.59c2.42-3.73,2.08-6.74-.48-10.17Z" transform="translate(-130.38 -4.32)"/><path class="cls-3" d="M1116.37,795.27V750.65h33.76c.21,2.21.38,4,.59,6.16-7.69,6.68-17.68-4.22-25.86,4.54,0,.2-.22,1.91-.56,4.75h19.43c.74,2.74,1.2,4.46,1.72,6.36l-2.87,4h-17.69c-.18,3.11-.32,5.67-.56,10h26.42c-.37,3.87-.57,5.92-.84,8.75Z" transform="translate(-130.38 -4.32)"/><path class="cls-3" d="M813.63,759c-.22,1.66-.57,4.3-1,7.57H831c1.67,3.52,2,6.44-.52,9.77H812.64c.42,3.44.77,6.25,1,8.39,7.52,6,20.41-3.59,27.36,10.4H804.92V750.72h37.71C833.2,762.6,822.5,754.83,813.63,759Z" transform="translate(-130.38 -4.32)"/><path class="cls-3" d="M766.62,785.2c-.71-3.22-1.2-5.43-1.69-7.62-12.32-4.13-29.79-3.78-21.12-25.63,10.55-1.52,21.78-6.31,28.82,8.86l-8.2.85-3.22-4.11-14.55,1.67c9.26,10,24.18,5.78,29,18.82,1.41,11.73-6.77,17.33-18.38,17.94-6.1.32-13.64-.29-17-8l3.7-3.89C751.24,787.92,758.52,787.44,766.62,785.2Z" transform="translate(-130.38 -4.32)"/><path class="cls-3" d="M954.6,793.61c-5.71-14.18-11.34-28.18-17.24-42.82h8.45l13.87,32.7,14-32.94H981C980.08,769.54,963,797.68,954.6,793.61Z" transform="translate(-130.38 -4.32)"/><path class="cls-3" d="M1088.33,757.51l-5.58,5.09c-10.27-5.64-21.48-7.76-24.53,3.26-7.71,27.85,16.45,18.06,29.49,20.61-4.14,8.71-19.56,11.87-28.57,5.75-11.2-7.59-15-18.45-7.53-30.87C1059.49,748.15,1073,746.26,1088.33,757.51Z" transform="translate(-130.38 -4.32)"/><path class="cls-3" d="M1011.17,750.52l7.52-.33V795h-7.52Z" transform="translate(-130.38 -4.32)"/><path class="cls-3" d="M955.88,287.94l-103.76,1.87q42-.9,83.89-1.78C942.63,287.9,949.26,288,955.88,287.94Z" transform="translate(-130.38 -4.32)"/><path class="cls-3" d="M961.1,286.36l-1.73.68Z" transform="translate(-130.38 -4.32)"/><path class="cls-1" d="M858.75,379l1.87-1.28c.25-.14.51-.27.77-.4,20.92-11.87,44.07-9.86,66.72-10.56,14.21-.44,28.44-.08,44.49-.08l-16.68,13c60.83-26.42,122.48-5.81,184.06-10.95-.92,4.81-1.32,7.35-1.91,9.85s-1.33,4.79-2.06,7.37H970.54l0,.89L981,388.17c-5.16,24.42-10.23,48.36-15.42,72.86l-10.93,7.5c24.32-7.75,40.11-21.6,51.93-40.19h113.35l-4.74,10.74c-42,10.47-91-17.15-123.65,29.21,34.94-34.32,78.3-17.52,120.46-21.91l-38.3,74.31h-47.94c-1.32-12.09,2.28-29.28-15-30C992,490,990.08,508,986.27,522.83c-11.77-.38-24.82,4.08-32.93-11.12-3.36,12.12-12.66,13.12-22,13.18-28.13.17-56.27,0-84.4,0-7.56,0-13-3.39-16.48-10.49-1.68,7.56,5.18,15.32,14.29,17.9,7.49,2.11,16.88-2.83,23.32,5.51-13.6,8.35-43.21,1-50.08-11.83-23.52-43.93-49.08-87-63.62-135-17-56-1.77-79.63,57.16-84.71,90.49-7.8,181.23-8.56,271.69,1,23.38,2.47,47.83,7.34,56,35.3,1.76,6,1.39,12.63,1.81,17-35.88,0-70.59-.09-105.3,0-46.75.15-93.53-2.51-140.23,1-14,1.05-26.94,5.82-37.26,16l-3.92,4.24.82.88Zm-60-36.61c0-1.08-.05-2.16-.07-3.24h70l.09-3.47L820,329.74c0-.46.09-.93.14-1.4H995.64l.14,1.9L931,336.52l.08,1.64,89,4c0,1.22-.09,2.44-.13,3.66l-54.75,2.42v2.52h158.53c0,.74,0,1.47,0,2.21l5.89-2.19c-.22-6.46-1.37-13-5.9-17-15.6-13.8-34.9-19.59-55.11-20.19-47.19-1.42-94.43-2-141.65-2.22-45.85-.22-91.82.05-137,9.15-13.67,2.76-25.33,10.76-29.34,26.56-5.56,21.89,4.29,40.25,12.59,58.72,12.76,28.37,26.76,56.19,40.91,85.67,3.86-12.18,4.08-22.51-2.62-32.35l2.55-4.45-9.24-3.45,9.39-4.42-11-3.68,5.48-4.15-10-4,9.65-4.43-6.54-3.39,4-4.14c-3.72-2.34-8.6.71-11.24-3.85l8.83-3.4c-2.31-3.78-8.29,1.12-8.77-4.92l10.6-4.6-12.92-5.46,12.29-4.11L785.31,392c10.89-3.58,20.07-1,26.92-8.18H794.77l-.61-3.29,28.59-4.69-.11-2.24-33.16-2.77-.07-1.83,46.22-6.92-.14-2.9H787.1l0-2.64,84.45-8.15Zm123.4,78.22c-.82-21.37,11-31.1,31.39-33.31-34.94,2.09-69,4.24-103.54.07a149.84,149.84,0,0,0-15.79,65.83c-.15,11.8,4.8,18.25,16.56,20,25.16,3.83,50.28,4.4,75.46.29,5.14-.84,11-1.91,11.46-7.73,1.78-23.07,6.15-45.63,12.56-68.84l-14.32,1.49,1.49,4.82C930.63,422.34,928.44,424.67,922.13,420.62Zm-86.5,65.54c1.8,15.21,3.62,25,19,24.65,22.25-.51,44.52.17,66.78.54,15.83.26,13.31-11.36,15.94-26.54C902.36,515,869.49,516.65,835.63,486.16ZM830,396.51c4.62-2.09,13.57,1.29,15-8.56-20,2-32.06,14.32-27.89,30.89C826.69,414.24,827.66,405.76,830,396.51Zm25.08,96.21c.15,4-.37,8.07,6,8l-2.17-5.3c18.12.22,35.8,3.83,53.07-2.73Z" transform="translate(-130.38 -4.32)"/><path class="cls-1" d="M969.3,456.85c5.22-22.75,10.41-45.42,15.85-69.15l23.47,1.06C1017,405.32,987.12,456.39,969.3,456.85Z" transform="translate(-130.38 -4.32)"/><path class="cls-1" d="M1012.21,497.2c9.26,5.05,7.87,13.87,7.31,21.93-.52,7.51-2.38,15-9.75,19.09-1.41.78-4.89.18-5.89-1-6-7.3-5-16-3.32-24.33C1001.87,506.21,1004.12,499.54,1012.21,497.2Zm1,29.66c5.38-5.59,6.38-10.39,1.45-16.51C1009.68,515.85,1008.36,520.63,1013.24,526.86Z" transform="translate(-130.38 -4.32)"/><path class="cls-1" d="M981.74,536c-.06-.44.12.87.37,2.63H915.58l-.21-2.63Z" transform="translate(-130.38 -4.32)"/><path class="cls-1" d="M1064.06,537.05c-14.23,5.18-29.2,1.53-43.92,2.67C1020.34,532.84,1036.09,531.56,1064.06,537.05Z" transform="translate(-130.38 -4.32)"/><path class="cls-3" d="M858.75,379l-3.54,2.63-.82-.88,3.92-4.24C858.45,377.35,858.6,378.18,858.75,379Z" transform="translate(-130.38 -4.32)"/><path class="cls-3" d="M861.39,377.33c-.26.13-.52.26-.77.4Z" transform="translate(-130.38 -4.32)"/><path class="cls-1" d="M1167,678.09c9.07,1.69,18.73-3.48,26.71,3.73,1.3,1.17,1.5,5.8.31,7.11-7.54,8.34-17.55,2.12-27,4.71Z" transform="translate(-130.38 -4.32)"/><path class="cls-1" d="M1166.86,665.47V653.2c7.27.48,14.79-2.48,21.41,2.37,1.15.84,1.51,5.08.52,6.11C1182.65,668.12,1174.69,663.31,1166.86,665.47Z" transform="translate(-130.38 -4.32)"/><path class="cls-1" d="M935.87,692.24c-11.1-1.75-18.22-8-18-19.44.24-11.89,7.56-19,19.54-18.48,11.24.47,17.81,7.75,17.64,18.95C954.89,685,947.55,691.06,935.87,692.24Z" transform="translate(-130.38 -4.32)"/><path class="cls-1" d="M507.07,692.54V653.46c9.33-1,18-1.09,24,7.46,5.37,7.57,5.66,15.45.72,23.24C526.07,693.23,517.2,693.82,507.07,692.54Z" transform="translate(-130.38 -4.32)"/><path class="cls-1" d="M876.32,759h21.11c2.56,3.43,2.9,6.44.48,10.17H876.32Z" transform="translate(-130.38 -4.32)"/><path class="cls-3" d="M798.73,342.4l72.78,6-84.45,8.15,0,2.64h48.39l.14,2.9L789.41,369l.07,1.83,33.16,2.77.11,2.24-28.59,4.69.61,3.29h17.46c-6.85,7.18-16,4.6-26.92,8.18l19.36,4.57-12.29,4.11,12.92,5.46-10.6,4.6c.48,6,6.46,1.14,8.77,4.92l-8.83,3.4c2.64,4.56,7.52,1.51,11.24,3.85l-4,4.14,6.54,3.39-9.65,4.43,10,4-5.48,4.15,11,3.68-9.39,4.42,9.24,3.45c-1,1.77-1.78,3.11-2.53,4.45,6.68,9.84,6.46,20.17,2.6,32.35-14.15-29.48-28.15-57.3-40.91-85.67-8.3-18.47-18.15-36.83-12.59-58.72,4-15.8,15.67-23.8,29.34-26.56,45.14-9.1,91.11-9.37,137-9.15,47.22.23,94.46.8,141.65,2.22,20.21.6,39.51,6.39,55.11,20.19,4.53,4,5.68,10.58,5.9,17l-5.89,2.19c0-.74,0-1.47,0-2.21H965.28v-2.52L1020,345.8c0-1.22.08-2.44.13-3.66l-89-4-.08-1.64,64.75-6.28-.14-1.9H820.12c0,.47-.09.94-.14,1.4l48.74,5.95-.09,3.47h-70C798.68,340.24,798.7,341.32,798.73,342.4Z" transform="translate(-130.38 -4.32)"/><path class="cls-2" d="M922.13,420.62c6.31,4.05,8.5,1.72,15.27-17.34l-1.49-4.82L950.23,397c-6.41,23.21-10.78,45.77-12.56,68.84-.45,5.82-6.32,6.89-11.46,7.73-25.18,4.11-50.3,3.54-75.46-.29-11.76-1.79-16.71-8.24-16.56-20A149.84,149.84,0,0,1,850,387.38c34.5,4.17,68.6,2,103.54-.07C933.13,389.52,921.31,399.25,922.13,420.62Z" transform="translate(-130.38 -4.32)"/><path class="cls-2" d="M835.63,486.16c33.86,30.49,66.73,28.82,101.76-1.35-2.63,15.18-.11,26.8-15.94,26.54-22.26-.37-44.53-1.05-66.78-.54C839.25,511.17,837.43,501.37,835.63,486.16Z" transform="translate(-130.38 -4.32)"/><path class="cls-2" d="M830,396.51c-2.33,9.25-3.3,17.73-12.91,22.33C812.91,402.27,825,389.92,845,388,843.56,397.8,834.61,394.42,830,396.51Z" transform="translate(-130.38 -4.32)"/><path class="cls-3" d="M855.07,492.72H912c-17.27,6.56-35,2.95-53.07,2.73l2.17,5.3C854.7,500.79,855.22,496.7,855.07,492.72Z" transform="translate(-130.38 -4.32)"/><path class="cls-2" d="M1013.24,526.86c-4.88-6.23-3.56-11,1.45-16.51C1019.62,516.47,1018.62,521.27,1013.24,526.86Z" transform="translate(-130.38 -4.32)"/></svg>